<?xml version="1.0" encoding="utf-8"?>
<!-- Generator: Adobe Illustrator 28.1.0, SVG Export Plug-In . SVG Version: 6.00 Build 0)  -->
<svg version="1.1" xmlns="http://www.w3.org/2000/svg" xmlns:xlink="http://www.w3.org/1999/xlink" x="0px" y="0px"
	 viewBox="0 0 474.81 443.55" style="enable-background:new 0 0 474.81 443.55;" xml:space="preserve">
<style type="text/css">
	.st0{fill:#E59C9C;}
	.st1{fill:#263238;stroke:#263238;stroke-miterlimit:10;}
	.st2{fill:#FFFFFF;stroke:#263238;stroke-miterlimit:10;}
	.st3{fill:none;stroke:#263238;stroke-miterlimit:10;}
	.st4{fill:#E60000;}
	.st5{opacity:0.2;}
	.st6{fill:#E60000;stroke:#263238;stroke-miterlimit:10;}
	.st7{fill:#92E3A9;stroke:#263238;stroke-miterlimit:10;}
	.st8{fill:#263238;}
	.st9{fill:none;stroke:#263238;stroke-width:2;stroke-linecap:round;stroke-miterlimit:10;}
	.st10{fill:#969696;stroke:#263238;stroke-miterlimit:10;}
</style>
<g id="Background_Simple">
	<g>
		<path class="st0" d="M32.71,225.56c0,0-0.2,75.35,60.36,123.45c60.55,48.11,146.73,48.7,216.44,51.03
			c69.71,2.34,124.75-39.52,134.93-100.25c10.17-60.73-42.6-76.61-69.2-144.41c-26.59-67.8-23.24-90.51-83.07-130.69
			c-59.83-40.18-156.61-10.85-209.38,63.4C30.01,162.36,32.71,225.56,32.71,225.56z"/>
	</g>
</g>
<g id="Speech_Bubble">
	<g>
		<g>
			<rect x="177.77" y="48.89" class="st1" width="119.91" height="73.72"/>
			<rect x="174.82" y="44.96" class="st2" width="119.91" height="73.72"/>
			<polygon class="st2" points="174.82,118.67 235.76,63.63 294.73,118.67 			"/>
			<polygon class="st2" points="174.82,44.96 234.77,93.12 294.73,44.96 			"/>
		</g>
		<path class="st3" d="M305.13,15.2H170.41c-19.68,0-35.64,15.96-35.64,35.64v61.09c0,19.68,15.96,35.64,35.64,35.64h116.74
			l-4.35,28.98l24.93-29.09c18.46-1.34,33.03-16.73,33.03-35.53V50.84C340.77,31.15,324.82,15.2,305.13,15.2z"/>
	</g>
</g>
<g id="Number">
	<g>
		<path class="st1" d="M317.6,70.1h-43.91c-10.36,0-18.75-8.4-18.75-18.75l0,0c0-10.36,8.4-18.75,18.75-18.75h43.91
			c10.36,0,18.75,8.4,18.75,18.75l0,0C336.35,61.7,327.95,70.1,317.6,70.1z"/>
		<g>
			<path class="st4" d="M268.55,48.13h-0.05l-3.09,1.36l-0.69-3.21l4.52-1.94h3.48v15h-4.18V48.13z"/>
			<path class="st4" d="M276.65,61.99c0.85-2.4,1.48-4.78,1.87-7.18l4.34-0.23c-0.88,2.63-1.96,5.01-3.3,7.18L276.65,61.99z"/>
			<path class="st4" d="M284.43,55.39c0-1.8,1.02-2.93,2.68-3.6v-0.05c-1.38-0.72-2.17-1.89-2.17-3.28c0-2.65,2.52-4.41,5.89-4.41
				c4.34,0,5.61,2.4,5.61,3.97c0,1.45-0.88,2.63-2.1,3.23v0.05c1.25,0.44,2.77,1.55,2.77,3.62c0,2.7-2.33,4.68-6.49,4.68
				C286,59.62,284.43,57.1,284.43,55.39z M292.6,55.26c0-1.02-0.88-1.71-2.1-1.98c-0.99,0.18-1.57,0.83-1.57,1.71
				c0,0.83,0.78,1.66,1.89,1.66C291.81,56.64,292.6,56.09,292.6,55.26z M289.04,48.36c0,0.78,0.92,1.34,1.96,1.64
				c0.62-0.12,1.32-0.72,1.32-1.45c0-0.81-0.53-1.57-1.68-1.57C289.59,46.97,289.04,47.57,289.04,48.36z"/>
			<path class="st4" d="M309.62,47.41c-0.39-0.05-0.74-0.05-1.29-0.05c-3.53,0.07-4.87,1.32-5.31,2.65h0.07
				c0.85-0.65,1.87-0.9,3.25-0.9c2.58,0,5.1,1.66,5.1,5.01c0,3.25-2.82,5.49-6.16,5.49c-4.82,0-6.71-3.46-6.71-6.74
				c0-2.56,0.97-4.96,2.72-6.51c1.8-1.57,4.06-2.31,7.04-2.31c0.62,0,0.97,0.05,1.29,0.09V47.41z M307.02,54.43
				c0-1.13-0.6-2.26-2.1-2.26c-0.97,0-1.71,0.58-1.96,1.22c-0.09,0.18-0.11,0.37-0.11,0.69c0.11,1.11,0.78,2.35,2.35,2.35
				C306.23,56.43,307.02,55.63,307.02,54.43z"/>
			<path class="st4" d="M323.84,47.41c-0.39-0.05-0.74-0.05-1.29-0.05c-3.53,0.07-4.87,1.32-5.31,2.65h0.07
				c0.85-0.65,1.87-0.9,3.25-0.9c2.58,0,5.1,1.66,5.1,5.01c0,3.25-2.82,5.49-6.16,5.49c-4.82,0-6.71-3.46-6.71-6.74
				c0-2.56,0.97-4.96,2.72-6.51c1.8-1.57,4.06-2.31,7.04-2.31c0.62,0,0.97,0.05,1.29,0.09V47.41z M321.23,54.43
				c0-1.13-0.6-2.26-2.1-2.26c-0.97,0-1.71,0.58-1.96,1.22c-0.09,0.18-0.11,0.37-0.11,0.69c0.11,1.11,0.78,2.35,2.35,2.35
				C320.44,56.43,321.23,55.63,321.23,54.43z"/>
		</g>
	</g>
</g>
<g id="Shadows">
	<polygon class="st5" points="33.78,389.04 69.98,347.99 97.38,347.99 128.69,328.54 153.15,340.43 207.94,379.32 259.8,395.53 
		297.96,375 321.44,382.56 358.62,352.31 399.72,352.31 418.31,339.35 448.64,362.04 434.94,377.16 469.19,398.77 464.3,443.06 
		25.95,443.06 	"/>
	<g class="st5">
		<rect x="303.3" y="177.56" transform="matrix(0.9869 -0.161 0.161 0.9869 -26.8857 55.5862)" width="52.34" height="32.18"/>
		<polygon points="398.94,244.03 347.28,252.46 350.09,269.68 345.74,265.98 324.88,290.48 364.74,324.41 385.6,299.91 
			364.8,282.21 404.12,275.79 		"/>
		<rect x="109.64" y="5.78" transform="matrix(0.9869 -0.161 0.161 0.9869 -1.7494 22.1561)" width="52.34" height="32.18"/>
		<rect x="79.76" y="273.04" transform="matrix(0.9869 -0.161 0.161 0.9869 -45.179 20.8331)" width="52.34" height="32.18"/>
		<rect x="138.34" y="191.73" transform="matrix(0.9877 -0.1561 0.1561 0.9877 -32.127 26.7832)" width="32.18" height="52.34"/>
		<rect x="74.74" y="200.57" transform="matrix(0.6526 -0.7577 0.7577 0.6526 -140.2495 147.5849)" width="32.18" height="52.34"/>
		<rect x="358.59" y="100.93" transform="matrix(0.6969 -0.7171 0.7171 0.6969 22.4053 307.2211)" width="32.18" height="52.34"/>
	</g>
</g>
<g id="Character">
	<g>
		<path class="st1" d="M256.31,162.07c0,0-8.58-9.5-22.07-8.58c-13.48,0.92-22.98,13.48-30.34,22.07
			c-7.35,8.58-3.37,17.16-2.76,18.39c0.61,1.23-19.92,13.48-20.84,24.21c-0.92,10.73,3.37,14.4,2.15,18.08
			c-1.23,3.68-21.15,17.77-18.69,26.36c2.45,8.58,8.27,14.4,8.27,14.4s-8.58,9.5-7.35,14.4c1.23,4.9,11.03,15.02,29.73,22.37
			s79.68,8.89,101.13,0.31c21.45-8.58,26.66-36.16,23.6-40.15c-3.06-3.98-12.26-7.97-11.03-13.18c1.23-5.21,5.21-12.56,2.45-17.16
			c-2.76-4.6-10.73-6.44-13.48-11.34c-2.76-4.9,2.45-11.65-1.53-17.77c-3.98-6.13-10.42-14.71-10.42-14.71s-6.44-27.27-13.79-34.63
			C263.97,157.78,256.31,162.07,256.31,162.07z"/>
		<g>
			<polygon class="st2" points="170.19,315.67 159.77,366.85 186.13,365.63 194.09,325.79 			"/>
			<polygon class="st1" points="168.94,322.21 192.48,333.37 192.72,328.03 169.42,319.3 			"/>
		</g>
		<g>
			<polygon class="st2" points="320.05,308.32 339.05,355.51 314.84,365.01 297.68,319.96 			"/>
			<polygon class="st1" points="323.06,317.11 300.49,327.31 297.68,319.96 320.05,308.32 			"/>
		</g>
		<g>
			<g>
				<g>
					<path class="st6" d="M229.64,228.64l-3.68,27.89c0,0-11.49,3.68-18.85,4.9c-7.35,1.23-22.83,4.9-26.2,11.95
						c-3.37,7.05-17.16,44.13-17.16,44.13l31.87,11.49l5.21,25.89l-4.9,49.34c0,0,103.58,1.23,103.58,0c0-1.23-9.5-53.63-9.5-53.63
						l3.68-22.68l33.71-16.24c0,0-21.76-42.6-28.81-46.89c-7.05-4.29-22.07-4.9-27.27-6.74c-5.21-1.84-9.19-4.9-9.19-4.9l-6.44-23.9
						L229.64,228.64z"/>
					<line class="st3" x1="197.68" y1="304.58" x2="198.11" y2="299.46"/>
					<line class="st3" x1="195.62" y1="329.01" x2="197.33" y2="308.7"/>
					<line class="st7" x1="294.79" y1="327.28" x2="288.88" y2="299.11"/>
				</g>
				<path class="st2" d="M271.32,258.06c-5.21-1.84-9.19-4.9-9.19-4.9l-6.44-23.9l-26.05-0.61l-3.68,27.89
					c0,0-12.79,4.35-20.61,6.03c5.43,3.57,21.05,12.54,40.22,12.05c16.56-0.42,28.41-9.52,34.13-15.08
					C275.99,259.06,272.9,258.62,271.32,258.06z"/>
			</g>
			<path class="st1" d="M259.62,243.84l-1.38-5.11l-13.83-9.74l-2.2-0.05l-14.26,12.48l-0.36,2.69
				c3.52,3.13,12.99,11.31,16.62,11.73C247.55,256.23,255.63,248.1,259.62,243.84z"/>
		</g>
		<g>
			<path class="st2" d="M254.55,180.62c0,0-2.94-9.7-9.07-6.9c-6.13,2.79-11.99,13.54-16.78,17.21c-4.79,3.66-12.96,2.27-12.96,2.27
				s0.95,26.89,3.92,35.76c2.97,8.87,15.44,20.26,20.89,21.01c5.45,0.74,11.6-2.6,15.9-7.92c4.3-5.33,7.99-8.74,9.02-14.73
				c0.93-5.4,1.27-27.63,1.07-29.83c-0.2-2.2-7.9-9.05-9.97-12.41C254.51,181.71,254.55,180.62,254.55,180.62z"/>
			<line class="st3" x1="226.65" y1="215.91" x2="231.47" y2="216.6"/>
			<line class="st3" x1="252.15" y1="217.29" x2="257.33" y2="216.6"/>
			<path class="st3" d="M237.91,224.13c0,0,2.67,2.01,5.43,1.29c2.77-0.72,4.2-2.59,4.2-2.59"/>
			<path class="st8" d="M244.44,233.14c-0.05,1.51-0.96,2.71-2.01,2.67c-1.06-0.04-1.87-1.29-1.82-2.81
				c0.05-1.51,0.96-2.71,2.01-2.67C243.68,230.37,244.5,231.62,244.44,233.14z"/>
			<path class="st8" d="M232.32,212.6c-0.06,1.57-0.78,2.82-1.61,2.79c-0.83-0.03-1.46-1.33-1.4-2.9c0.06-1.57,0.78-2.82,1.61-2.79
				C231.75,209.73,232.38,211.03,232.32,212.6z"/>
			<path class="st8" d="M255.17,213.42c-0.06,1.57-0.78,2.82-1.61,2.79c-0.83-0.03-1.46-1.33-1.4-2.9c0.06-1.57,0.78-2.82,1.61-2.79
				C254.6,210.55,255.23,211.85,255.17,213.42z"/>
			<path class="st9" d="M223.34,203.37c0,0,5.73-6.92,13.19-1.17"/>
			<path class="st9" d="M248.06,201.52c0,0,7.33-5.76,13.37,1.58"/>
			<path class="st2" d="M216.57,208.61c0,0-3.07-6.14-3.91,2.05s5.09,10.87,5.09,10.87L216.57,208.61z"/>
			<path class="st2" d="M266.64,210.32c0,0,3-6.17,3.93,2.01c0.94,8.18-4.41,8.34-4.41,8.34L266.64,210.32z"/>
		</g>
		<path class="st2" d="M312.39,323.34l-26.05-30.03c0,0-6.44-10.42-7.97-12.87c-1.53-2.45-6.44-7.97-6.44-7.97s-3.06-0.92-1.84,3.06
			c1.23,3.98,4.29,9.19,4.29,9.19l0.61,3.68l-27.64-9.87c-1.26-0.45-2.64,0.31-2.92,1.63l-0.03,0.14c-0.21,0.98,0.27,1.99,1.16,2.44
			l14.72,7.5l-22.09-3.87c-1.3-0.23-2.5,0.72-2.6,2.03l0,0c-0.08,1.07,0.62,2.03,1.65,2.31l20.28,5.35l-18.93,1.08
			c-1.32,0.08-2.25,1.32-1.96,2.61l0,0c0.21,0.9,0.98,1.57,1.9,1.65l20.82,1.71l-13.77,2.75c-0.85,0.17-1.4,1.01-1.21,1.86l0,0
			c0.16,0.71,0.79,1.21,1.51,1.21h16.84l9.5,1.84l11.65,1.53c0,0,29.73,56.08,30.65,57.92s5.82,4.9,10.73,4.9
			c4.9,0,11.77-5.38,13.29-8.79c1.42-3.18,3.26-9.6-2.56-15.73C330.16,344.48,312.39,323.34,312.39,323.34z"/>
		<polygon class="st1" points="229.64,296.67 234.37,338.67 257.66,337.14 252.63,294.83 		"/>
		<g>
			<path class="st2" d="M218.3,343.56l2.15-20.84c0,0-2.15-10.11-1.23-10.11c0.92,0,11.65-2.15,11.65-2.15l0.92,3.68l-6.44,3.37
				l3.68,7.66l19.18-11.68c1.02-0.62,2.34-0.15,2.75,0.97l0,0c0.27,0.73,0.06,1.55-0.53,2.06l-14.36,12.63l18.69-6.5
				c1.3-0.45,2.71,0.34,3,1.69l0,0c0.22,1.03-0.29,2.08-1.23,2.54l-18.93,9.32l14.36-1.1c1.5,0.18,2.41,1.74,1.83,3.14l0,0
				c-0.24,0.57-0.7,1.03-1.29,1.25l-2.06,3.16c-0.38,0.58-0.95,1.01-1.62,1.21l-3.69,1.1l-18.27,6.87c0,0-47.19,33.4-48.42,34.32
				c-1.23,0.92-3.98,2.15-10.42,0.92c-6.44-1.23-11.95-11.03-10.42-17.77s6.74-9.81,8.58-10.42
				C168.04,358.27,218.3,343.56,218.3,343.56z"/>
			<line class="st3" x1="224.65" y1="334.16" x2="232" y2="349.17"/>
			<line class="st2" x1="252.91" y1="339.13" x2="237.18" y2="342.82"/>
		</g>
		<polygon class="st10" points="316.75,442.55 299.52,404.24 195.93,404.24 181.12,442.55 		"/>
		<path class="st1" d="M251.31,172.04c0,0-4.79,1.6-6.7,9.58c-1.92,7.98-8.94,12.45-14.05,13.41c-5.11,0.96-9.26-2.55-9.26-2.55
			s6.38,2.55,12.13-2.23c5.75-4.79,2.87-13.73,7.02-16.92"/>
	</g>
</g>
<g id="Envelopes">
	<g>
		<g>
			
				<rect x="81.19" y="389.86" transform="matrix(0.8795 -0.4758 0.4758 0.8795 -180.8787 102.0514)" class="st2" width="59.82" height="36.78"/>
			<polygon class="st2" points="93.55,438.65 107.22,400.04 146.16,410.19 			"/>
			<polygon class="st2" points="76.05,406.31 113.79,413.21 128.66,377.84 			"/>
		</g>
		<g>
			<polygon class="st2" points="244.86,443.06 254.65,437.77 237.15,405.42 184.53,433.89 189.5,443.06 			"/>
			<polygon class="st2" points="244.86,443.06 254.65,437.77 215.71,427.62 210.24,443.06 			"/>
			<polygon class="st2" points="184.53,433.89 222.27,440.79 237.15,405.42 			"/>
		</g>
		<g>
			<polygon class="st2" points="115.04,443.06 167.31,414.78 149.81,382.44 97.19,410.91 114.59,443.06 			"/>
			<polygon class="st2" points="115.04,443.06 167.31,414.78 128.37,404.63 114.76,443.06 			"/>
			<polygon class="st2" points="97.19,410.91 134.93,417.8 149.81,382.44 			"/>
		</g>
		<g>
			
				<rect x="84.71" y="359.06" transform="matrix(-0.9596 0.2815 -0.2815 -0.9596 330.8528 707.3726)" class="st2" width="59.82" height="36.78"/>
			<polygon class="st2" points="148.5,386.67 111.59,368.88 91.09,403.51 			"/>
			<polygon class="st2" points="138.14,351.39 116.21,382.86 80.74,368.23 			"/>
		</g>
		<g>
			
				<rect x="144.74" y="390.66" transform="matrix(-0.9596 0.2815 -0.2815 -0.9596 457.3824 752.3875)" class="st2" width="59.82" height="36.78"/>
			<polygon class="st2" points="208.53,418.27 171.63,400.48 151.13,435.11 			"/>
			<polygon class="st2" points="198.18,382.98 176.24,414.46 140.77,399.82 			"/>
		</g>
		<g>
			
				<rect x="116.75" y="167.67" transform="matrix(-0.9869 -0.161 0.161 -0.9869 261.4459 393.3069)" class="st2" width="59.82" height="36.78"/>
			<polygon class="st2" points="173.22,209.02 147.64,177.03 114.18,199.39 			"/>
			<polygon class="st2" points="179.14,172.73 145.75,191.62 120.1,163.09 			"/>
		</g>
		<g>
			
				<rect x="63.92" y="248.21" transform="matrix(-0.9869 -0.161 0.161 -0.9869 143.5098 544.829)" class="st2" width="59.82" height="36.78"/>
			<polygon class="st2" points="120.39,289.56 94.81,257.57 61.35,279.93 			"/>
			<polygon class="st2" points="126.32,253.27 92.93,272.16 67.28,243.63 			"/>
		</g>
		<g>
			
				<rect x="311.61" y="78.47" transform="matrix(-0.9869 -0.161 0.161 -0.9869 662.9795 247.4495)" class="st2" width="59.82" height="36.78"/>
			<polygon class="st2" points="368.08,119.82 342.49,87.83 309.04,110.19 			"/>
			<polygon class="st2" points="374,83.53 340.61,102.42 314.96,73.89 			"/>
		</g>
		<g>
			
				<rect x="374.14" y="358.32" transform="matrix(-0.9869 -0.161 0.161 -0.9869 742.1533 813.5731)" class="st2" width="59.82" height="36.78"/>
			<polygon class="st2" points="430.61,399.68 405.02,367.68 371.57,390.04 			"/>
			<polygon class="st2" points="436.53,363.38 403.14,382.28 377.49,353.75 			"/>
		</g>
		<g>
			
				<rect x="269.95" y="390.53" transform="matrix(-0.9869 -0.161 0.161 -0.9869 529.9491 860.7778)" class="st2" width="59.82" height="36.78"/>
			<polygon class="st2" points="326.42,431.88 300.83,399.88 267.38,422.24 			"/>
			<polygon class="st2" points="332.34,395.58 298.95,414.48 273.3,385.95 			"/>
		</g>
		<g>
			
				<rect x="372.23" y="276.79" transform="matrix(-0.9869 -0.161 0.161 -0.9869 751.4941 651.2634)" class="st2" width="59.82" height="36.78"/>
			<polygon class="st2" points="428.7,318.14 403.12,286.15 369.66,308.51 			"/>
			<polygon class="st2" points="434.62,281.85 401.23,300.74 375.58,272.21 			"/>
		</g>
		<g>
			
				<rect x="208.99" y="357.89" transform="matrix(-0.8644 0.5028 -0.5028 -0.8644 634.5762 581.4295)" class="st2" width="59.82" height="36.78"/>
			<polygon class="st2" points="274,377.13 233.91,368.68 222.28,407.21 			"/>
			<polygon class="st2" points="255.51,345.34 241.73,381.15 203.8,375.42 			"/>
		</g>
		<g>
			
				<rect x="316.8" y="195.38" transform="matrix(-0.1561 0.9877 -0.9877 -0.1561 611.9952 -95.315)" class="st2" width="59.82" height="36.78"/>
			<polygon class="st2" points="369.55,187.1 337.68,212.84 360.21,246.19 			"/>
			<polygon class="st2" points="333.22,181.36 352.28,214.65 323.88,240.44 			"/>
		</g>
		<g>
			
				<rect x="313.14" y="352.77" transform="matrix(-0.1561 0.9877 -0.9877 -0.1561 763.2131 90.2665)" class="st2" width="59.82" height="36.78"/>
			<polygon class="st2" points="365.88,344.49 334.01,370.23 356.54,403.57 			"/>
			<polygon class="st2" points="329.55,338.74 348.62,372.04 320.22,397.83 			"/>
		</g>
		<g>
			
				<rect x="389.49" y="205.49" transform="matrix(-0.7577 0.6526 -0.6526 -0.7577 883.2834 119.7933)" class="st2" width="59.82" height="36.78"/>
			<polygon class="st2" points="454.06,218.29 413.11,217.32 408.74,257.33 			"/>
			<polygon class="st2" points="430.06,190.43 423.08,228.15 384.74,229.47 			"/>
		</g>
		<g>
			
				<rect x="65.08" y="91.61" transform="matrix(-0.7171 0.6969 -0.6969 -0.7171 239.7799 122.679)" class="st2" width="59.82" height="36.78"/>
			<polygon class="st2" points="129.26,102.34 88.32,103.84 86.36,144.03 			"/>
			<polygon class="st2" points="103.63,75.97 98.92,114.04 60.73,117.66 			"/>
		</g>
		<g>
			<polygon class="st2" points="40.57,443.06 92.84,414.78 75.34,382.44 22.72,410.91 40.12,443.06 			"/>
			<polygon class="st2" points="40.57,443.06 92.84,414.78 53.9,404.63 40.29,443.06 			"/>
			<polygon class="st2" points="22.72,410.91 60.46,417.8 75.34,382.44 			"/>
		</g>
		<g>
			<polygon class="st2" points="68.46,443.3 66.03,414.04 6.41,418.99 8.43,443.3 			"/>
			<polygon class="st2" points="59.72,443.3 37.48,425.76 21.02,443.3 			"/>
			<polygon class="st2" points="6.41,418.99 38.21,440.46 66.03,414.04 			"/>
		</g>
		<g>
			<polygon class="st2" points="303,443.06 306.12,422.04 246.95,413.24 242.52,443.06 			"/>
			<polygon class="st2" points="288.5,443.06 275.65,426.93 251.4,443.06 			"/>
			<polygon class="st2" points="246.95,413.24 273.01,441.41 306.12,422.04 			"/>
		</g>
		<g>
			
				<rect x="45.34" y="374.23" transform="matrix(0.9993 0.038 -0.038 0.9993 14.9911 -2.5785)" class="st2" width="59.82" height="36.78"/>
			<polygon class="st2" points="44.66,409.86 76.08,383.57 104.44,412.13 			"/>
			<polygon class="st2" points="46.06,373.11 75.03,398.25 105.84,375.38 			"/>
		</g>
		<g>
			
				<rect x="84.3" y="377.8" transform="matrix(0.9596 0.2815 -0.2815 0.9596 116.1442 -16.1298)" class="st2" width="59.82" height="36.78"/>
			<polygon class="st2" points="80.34,405.42 117.24,387.63 137.74,422.26 			"/>
			<polygon class="st2" points="90.69,370.13 112.63,401.6 148.09,386.97 			"/>
		</g>
		<g>
			<polygon class="st2" points="74.88,443.06 94.03,426.09 69.64,398.57 24.87,438.24 29.14,443.06 			"/>
			<polygon class="st2" points="74.88,443.06 94.03,426.09 53.8,425.05 51.79,443.06 			"/>
			<polygon class="st2" points="24.87,438.24 63.19,436.39 69.64,398.57 			"/>
		</g>
		<g>
			<polygon class="st2" points="118.59,443.06 125.61,419.13 68.21,402.29 57.86,437.58 76.56,443.06 			"/>
			<polygon class="st2" points="108.54,443.06 94.76,419.79 57.86,437.58 76.56,443.06 			"/>
			<polygon class="st2" points="68.21,402.29 90.15,433.76 125.61,419.13 			"/>
		</g>
		<g>
			<polygon class="st2" points="223.44,443.06 224.44,416.75 164.66,414.48 163.57,443.06 			"/>
			<polygon class="st2" points="212.67,443.06 194.68,424.94 173.02,443.06 			"/>
			<polygon class="st2" points="164.66,414.48 193.63,439.63 224.44,416.75 			"/>
		</g>
		<g>
			
				<rect x="347.03" y="389.86" transform="matrix(-0.8795 -0.4758 0.4758 -0.8795 514.2151 946.6821)" class="st2" width="59.82" height="36.78"/>
			<polygon class="st2" points="394.5,438.65 380.83,400.04 341.89,410.19 			"/>
			<polygon class="st2" points="412,406.31 374.26,413.21 359.39,377.84 			"/>
		</g>
		<g>
			<polygon class="st2" points="373.46,443.06 390.86,410.91 338.24,382.44 320.74,414.78 373.01,443.06 			"/>
			<polygon class="st2" points="373.29,443.06 359.68,404.63 320.74,414.78 373.01,443.06 			"/>
			<polygon class="st2" points="390.86,410.91 353.12,417.8 338.24,382.44 			"/>
		</g>
		<g>
			
				<rect x="301.07" y="390.78" transform="matrix(-0.8795 -0.4758 0.4758 -0.8795 427.3779 926.536)" class="st2" width="59.82" height="36.78"/>
			<polygon class="st2" points="348.53,439.57 334.86,400.96 295.92,411.11 			"/>
			<polygon class="st2" points="366.03,407.23 328.29,414.13 313.42,378.76 			"/>
		</g>
		<g>
			<polygon class="st2" points="447.93,443.06 465.33,410.91 412.71,382.44 395.21,414.78 447.48,443.06 			"/>
			<polygon class="st2" points="447.76,443.06 434.15,404.63 395.21,414.78 447.48,443.06 			"/>
			<polygon class="st2" points="465.33,410.91 427.59,417.8 412.71,382.44 			"/>
		</g>
		<g>
			<polygon class="st2" points="349.39,443.06 356.84,429.29 304.22,400.83 286.73,433.17 305.01,443.06 			"/>
			<polygon class="st2" points="332.76,443.06 325.67,423.02 286.73,433.17 305.01,443.06 			"/>
			<polygon class="st2" points="356.84,429.29 319.1,436.19 304.22,400.83 			"/>
		</g>
		<g>
			
				<rect x="382.89" y="374.23" transform="matrix(-0.9993 0.038 -0.038 -0.9993 840.2388 769.2491)" class="st2" width="59.82" height="36.78"/>
			<polygon class="st2" points="443.39,409.86 411.97,383.57 383.61,412.13 			"/>
			<polygon class="st2" points="441.99,373.11 413.01,398.25 382.21,375.38 			"/>
		</g>
		<g>
			
				<rect x="355.31" y="365.96" transform="matrix(-0.6474 -0.7622 0.7622 -0.6474 341.6705 926.7632)" class="st2" width="59.82" height="36.78"/>
			<polygon class="st2" points="390.57,419.04 391.82,378.1 351.84,373.45 			"/>
			<polygon class="st2" points="418.6,395.24 380.92,387.99 379.87,349.64 			"/>
		</g>
		<g>
			
				<rect x="343.93" y="377.8" transform="matrix(-0.9596 0.2815 -0.2815 -0.9596 844.0798 671.1306)" class="st2" width="59.82" height="36.78"/>
			<polygon class="st2" points="407.71,405.42 370.81,387.63 350.31,422.26 			"/>
			<polygon class="st2" points="397.36,370.13 375.42,401.6 339.96,386.97 			"/>
		</g>
		<g>
			<polygon class="st2" points="458.91,443.06 463.18,438.24 418.41,398.57 394.02,426.09 413.17,443.06 			"/>
			<polygon class="st2" points="436.26,443.06 434.25,425.05 394.02,426.09 413.17,443.06 			"/>
			<polygon class="st2" points="463.18,438.24 424.86,436.39 418.41,398.57 			"/>
		</g>
		<g>
			<polygon class="st2" points="411.49,443.06 430.19,437.58 419.84,402.29 362.44,419.13 369.46,443.06 			"/>
			<polygon class="st2" points="411.49,443.06 430.19,437.58 393.29,419.79 379.51,443.06 			"/>
			<polygon class="st2" points="419.84,402.29 397.9,433.76 362.44,419.13 			"/>
		</g>
		<g>
			
				<rect x="305.66" y="399.05" transform="matrix(-0.9993 0.038 -0.038 -0.9993 686.7838 821.8156)" class="st2" width="59.82" height="36.78"/>
			<polygon class="st2" points="366.16,434.68 334.74,408.4 306.38,436.95 			"/>
			<polygon class="st2" points="364.76,397.93 335.79,423.08 304.98,400.21 			"/>
		</g>
		<g>
			<polygon class="st2" points="148.11,443.06 180.04,425.79 162.54,393.44 109.93,421.91 121.37,443.06 			"/>
			<polygon class="st2" points="148.11,443.06 180.04,425.79 141.1,415.64 131.39,443.06 			"/>
			<polygon class="st2" points="109.93,421.91 147.67,428.81 162.54,393.44 			"/>
		</g>
		<g>
			
				<rect x="87.31" y="283.72" transform="matrix(-0.7614 0.6482 -0.6482 -0.7614 402.3085 456.1527)" class="st2" width="59.82" height="36.78"/>
			<polygon class="st2" points="151.91,296.72 110.96,295.52 106.36,335.5 			"/>
			<polygon class="st2" points="128.07,268.72 120.87,306.4 82.52,307.49 			"/>
		</g>
	</g>
</g>
<g id="Table">
	<line class="st3" x1="0" y1="443.06" x2="473.58" y2="443.06"/>
</g>
</svg>
