<svg width="239" height="90" viewBox="0 0 239 90" fill="none" xmlns="http://www.w3.org/2000/svg">
<path fill-rule="evenodd" clip-rule="evenodd" d="M208.913 5.09786C223.387 3.70823 236.46 12.8869 237.912 28.0138C239.584 45.426 228.756 57.3386 215.588 58.6029C213.046 58.8469 210.021 58.8317 208.387 58.8234C208.062 58.8218 207.792 58.8204 207.591 58.8215L207.612 59.0391C208.045 76.1309 204.365 82.415 193.918 83.4181C186.624 84.1183 182.044 81.1706 178.988 73.5948C182.654 67.0409 184.681 59.3251 184.681 50.8982C184.681 39.1444 180.725 28.7902 173.587 21.0999C174.965 12.1907 178.927 8.0867 186.614 7.3486L208.913 5.09786ZM214.095 29.438C214.095 32.9209 211.195 35.7444 207.618 35.7444C204.041 35.7444 201.141 32.9209 201.141 29.438C201.141 25.955 204.041 23.1315 207.618 23.1315C211.195 23.1315 214.095 25.955 214.095 29.438Z" fill="#E60000"/>
<path fill-rule="evenodd" clip-rule="evenodd" d="M103.15 65.1848C108.434 79.8602 121.991 89.5998 139.768 89.5998C162.945 89.5998 178.907 73.2008 178.907 50.8982C178.907 28.5956 162.945 13.1805 139.768 13.1805C133.992 13.1805 128.662 14.147 123.916 15.9459C124.154 17.6016 124.162 19.3076 123.921 21.0159C122.619 30.2443 115.682 35.4536 108.174 36.3363C107.941 38.5826 107.641 40.9347 107.293 43.4012L106.834 46.6489C105.838 53.712 104.672 59.923 103.15 65.1848ZM146.328 42.2614C146.328 45.9785 143.157 48.493 139.768 48.493C136.488 48.493 133.318 45.9785 133.318 42.2614C133.318 38.435 136.379 36.0298 139.768 36.0298C143.266 36.0298 146.328 38.435 146.328 42.2614Z" fill="#E60000"/>
<path d="M107.868 6.60603C111.023 6.94075 113.979 8.68278 115.932 11.2769C117.791 13.7475 118.663 16.9619 118.204 20.2095C117.135 27.7873 110.54 31.4939 103.936 30.5621L102.854 30.4093C102.674 34.0275 102.217 38.0482 101.576 42.5949L101.117 45.8425C97.5125 71.3905 92.1031 81.5578 79.7622 79.8164C67.5294 78.0903 65.1445 66.8232 68.7495 41.2752L69.2077 38.0276C69.834 33.5892 70.5074 29.5991 71.2433 25.949L70.269 25.8115C63.6655 24.8797 58.3531 19.4929 59.4223 11.9151C59.7723 8.65221 61.4991 5.8044 64.0779 3.96009C66.6721 2.00753 69.8865 1.13618 73.1188 1.7027L107.868 6.60603Z" fill="#E60000"/>
<path d="M53.5417 15.0697C49.2077 12.6376 43.8884 10.8947 38.2291 10.2277C22.4857 8.37228 8.18366 16.7043 6.73768 28.9732C5.52203 39.2879 10.4257 46.2506 18.166 49.6948C20.4651 50.7363 24.5331 52.6469 27.5539 54.1037C31.3474 55.5416 29.673 60.408 23.4912 56.8173C23.435 56.7818 23.3786 56.7461 23.322 56.7104C21.0066 55.2461 18.3564 53.5702 13.3751 52.9831C5.12341 52.0106 0.721469 58.5371 0.0816539 63.9658C-1.13399 74.2805 11.3568 84.1189 30.0317 86.3199C46.1008 88.2137 60.6518 80.5716 62.2897 66.674C63.2623 58.4223 60.1663 50.1314 52.3431 46.4573C49.6741 45.1732 47.8606 44.4134 45.9522 43.6138C45.477 43.4147 44.9959 43.2131 44.4943 43.0004C44.3791 42.9485 44.2648 42.8974 44.152 42.847C42.3203 42.0285 40.8584 41.3752 41.4484 39.8893C41.7935 38.8291 42.809 38.6186 43.7606 38.9509C45.3381 39.5771 46.9283 40.0948 48.5313 40.5039C56.3165 42.6324 63.2153 38.2715 64.1495 30.3455C64.1627 30.2329 64.1741 30.1203 64.1835 30.0079C58.449 27.444 53.9862 22.1397 53.5417 15.0697Z" fill="#E60000"/>
</svg>
